<?xml version="1.0" encoding="UTF-8"?>
<svg version="1.1" xmlns="http://www.w3.org/2000/svg" width="800" height="800">
<path d="M0 0 C1.97348129 -0.10741579 3.94695625 -0.21494776 5.92042542 -0.32258606 C24.07408193 -1.27982538 42.24213556 -1.83433777 60.41484261 -2.27805805 C72.5755147 -2.58236 84.70497045 -3.0087598 96.84716797 -3.75585938 C181.17789442 -8.84217347 181.17789442 -8.84217347 200.47711182 8.01919556 C208.96141199 15.99397921 216.12354695 25.22987069 223.26904297 34.38793945 C238.55115131 53.93125818 251.99968748 68.53295844 277.55154991 72.06886768 C290.61113705 73.52592965 303.66651708 73.90150133 316.79248047 73.8762207 C317.46029338 73.8756443 318.1281063 73.87506789 318.81615597 73.87447402 C335.99439561 73.84541116 353.13063659 73.18528097 370.28372824 72.30437297 C380.20671569 71.79968501 390.12627325 71.45014515 400.05908203 71.20898438 C400.76450975 71.1918046 401.46993746 71.17462483 402.19674177 71.15692446 C406.44438431 71.05468138 410.69213423 70.9576874 414.93994573 70.86275245 C421.14143989 70.72389253 427.34279127 70.57926794 433.54403687 70.42973328 C434.21176803 70.41379246 434.87949919 70.39785165 435.56746463 70.38142779 C445.33071079 70.14526455 455.08516697 69.78777639 464.84194946 69.3618927 C468.44298748 69.21453205 472.0440892 69.06881987 475.64520454 68.92336273 C478.93492849 68.78114079 482.22213227 68.60899384 485.5103302 68.43553162 C505.48367441 67.54065121 520.90631367 72.3337627 536.31591797 85.38793945 C537.22664062 86.15364258 537.22664062 86.15364258 538.15576172 86.93481445 C548.57710697 96.48180647 555.04724039 110.58681751 557.31591797 124.38793945 C557.31591797 128.01793945 557.31591797 131.64793945 557.31591797 135.38793945 C370.53591797 135.38793945 183.75591797 135.38793945 -8.68408203 135.38793945 C-8.35408203 241.97793945 -8.02408203 348.56793945 -7.68408203 458.38793945 C1.88591797 422.41793945 11.45591797 386.44793945 21.31591797 349.38793945 C28.42872378 322.82841987 35.54282221 296.26942389 42.68862152 269.71878815 C43.32482465 267.35484486 43.96091648 264.99087164 44.59698486 262.62689209 C47.25076136 252.7644103 49.90662184 242.90249218 52.56489563 233.04122162 C53.1225932 230.97205051 53.68003671 228.9028111 54.23742676 226.83355713 C55.24812595 223.08184501 56.26040694 219.33056084 57.27294922 215.5793457 C57.71804588 213.92665932 57.71804588 213.92665932 58.1721344 212.24058533 C58.44234909 211.24064041 58.71256378 210.2406955 58.9909668 209.21044922 C59.22439285 208.34525162 59.45781891 207.48005402 59.69831848 206.58863831 C60.18886163 204.84068066 60.74181097 203.11026046 61.31591797 201.38793945 C249.41591797 201.38793945 437.51591797 201.38793945 631.31591797 201.38793945 C630.02341357 207.85046147 628.67409528 214.15649986 626.96850586 220.50146484 C626.74204376 221.35390274 626.51558167 222.20634064 626.28225708 223.08460999 C625.5373063 225.8857319 624.7879788 228.68566237 624.03857422 231.4855957 C623.50701879 233.48051657 622.97572861 235.47550812 622.44468689 237.4705658 C621.04278447 242.73430929 619.63712696 247.99704298 618.23071289 253.25958252 C617.11654593 257.43084679 616.00484774 261.60276668 614.89341164 265.77475929 C614.07150303 268.85967218 613.24898723 271.94442267 612.42636108 275.02914429 C611.33668272 279.11547998 610.24890239 283.20231472 609.16226196 287.28945923 C606.74672167 296.36356757 604.31508034 305.43190103 601.80084705 314.47923756 C600.73648691 318.31064209 599.68165921 322.14464491 598.62710381 325.97875786 C598.12943182 327.77596071 597.62656028 329.57173264 597.11824226 331.36595345 C596.4220291 333.82366191 595.74307447 336.28554172 595.06762695 338.74902344 C594.8582015 339.46969183 594.64877605 340.19036022 594.43300438 340.93286705 C593.37713159 344.81721363 593.37713159 344.81721363 594.14393616 348.6778717 C594.53069016 349.24219406 594.91744415 349.80651642 595.31591797 350.38793945 C595.64591797 351.37793945 595.97591797 352.36793945 596.31591797 353.38793945 C597.63125207 354.08945098 598.96709389 354.75319871 600.31591797 355.38793945 C602.06591797 356.88793945 602.06591797 356.88793945 603.31591797 358.38793945 C603.31591797 359.04793945 603.31591797 359.70793945 603.31591797 360.38793945 C604.21310547 360.79012695 604.21310547 360.79012695 605.12841797 361.20043945 C607.31439651 362.38711352 608.72924391 363.48393058 610.31591797 365.38793945 C610.31591797 366.04793945 610.31591797 366.70793945 610.31591797 367.38793945 C611.21310547 367.79012695 611.21310547 367.79012695 612.12841797 368.20043945 C614.48322687 369.47876429 615.72212528 370.2303522 617.31591797 372.38793945 C617.61266222 374.88412468 617.72514422 377.13188381 617.70359802 379.62879944 C617.71167633 380.74299599 617.71167633 380.74299599 617.71991783 381.87970155 C617.7342592 384.37618557 617.72707851 386.87214392 617.7199707 389.36865234 C617.72567136 391.15580676 617.73263443 392.94295754 617.74076843 394.73010254 C617.75875666 399.59206374 617.75751988 404.45384499 617.75182605 409.31582952 C617.74873985 413.37607707 617.75482088 417.43628978 617.76086479 421.49653238 C617.77492936 431.08137644 617.773335 440.66613143 617.76196289 450.25097656 C617.75050214 460.12854229 617.76451853 470.00583586 617.79135936 479.88336569 C617.81354835 488.36760812 617.82014587 496.85176534 617.81428295 505.33603472 C617.81091711 510.4012496 617.81330267 515.46629037 617.83053398 520.53148079 C617.84605004 525.30121884 617.84199594 530.07055614 617.82322884 534.84027863 C617.81955466 536.58570468 617.82261708 538.33116071 617.83311462 540.07655907 C617.89127133 550.55078215 617.23224521 559.00577654 611.62841797 568.13793945 C604.00553517 575.55479839 596.08035874 578.70960149 585.42199707 578.64190674 C584.65733077 578.64502672 583.89266446 578.6481467 583.10482645 578.65136123 C580.55857395 578.65929864 578.0125626 578.65303431 575.46630859 578.64672852 C573.63429119 578.64944027 571.80227488 578.65300224 569.97026062 578.65734863 C565.00546016 578.66645294 560.04074297 578.66293644 555.07594109 578.65659046 C549.87553562 578.65152035 544.6751372 578.65622473 539.47473145 578.65936279 C530.74225588 578.66299948 522.00981417 578.65821112 513.27734375 578.64868164 C503.18726403 578.63779767 493.09726513 578.64132346 483.00718737 578.65233445 C474.33778712 578.66141577 465.66841117 578.66268846 456.9990077 578.65745711 C451.8238947 578.65434207 446.64881966 578.6539153 441.47370911 578.66053009 C436.60799699 578.66631519 431.74238891 578.6622853 426.876688 578.65074158 C425.09291061 578.64810123 423.30912444 578.6488494 421.52535057 578.65326691 C419.0867292 578.6587485 416.64843925 578.65185668 414.20983887 578.64190674 C413.50739626 578.64636818 412.80495366 578.65082963 412.08122492 578.65542626 C403.49498797 578.58767978 397.53225299 576.07361173 391.31591797 570.38793945 C383.7442414 562.44108972 382.11420697 554.19310754 382.24560547 543.5402832 C382.25321899 542.36169739 382.25321899 542.36169739 382.26098633 541.15930176 C382.27414822 539.23547221 382.29432223 537.31169281 382.31591797 535.38793945 C381.47484619 535.38907861 380.63377441 535.39021778 379.76721561 535.39139146 C329.89746236 535.45855337 280.02771391 535.51001313 230.15792447 535.54113544 C224.16745738 535.54488748 218.17699039 535.54877045 212.18652344 535.55273438 C210.99394987 535.55352131 209.80137631 535.55430824 208.57266416 535.55511902 C189.27305981 535.56816617 169.97348233 535.59181622 150.67389391 535.61939784 C130.86471061 535.64747123 111.05554135 535.66411981 91.24633896 535.67020494 C79.02705026 535.67431736 66.80783749 535.68729733 54.58857216 535.71168885 C46.20471329 535.7275699 37.82089357 535.73233444 29.43702076 535.72844359 C24.60294825 535.72652574 19.76900825 535.72942643 14.93495941 535.74555588 C10.50177707 535.76023915 6.06881538 535.76083757 1.63562252 535.75063614 C0.03914803 535.74937677 -1.55734067 535.75311059 -3.15378751 535.762589 C-15.91675039 535.83390577 -28.44306358 534.85800277 -39.93408203 528.76293945 C-40.93665039 528.24461548 -40.93665039 528.24461548 -41.95947266 527.71582031 C-48.02852775 524.44454098 -52.91850676 520.36818027 -57.68408203 515.38793945 C-58.38919922 514.7021582 -59.09431641 514.01637695 -59.82080078 513.30981445 C-71.76562337 501.02371122 -76.79414044 483.94261413 -76.81830311 467.10570621 C-76.82065534 466.40343614 -76.82300757 465.70116607 -76.82543108 464.97761509 C-76.83207393 462.63065521 -76.83166429 460.28375129 -76.83125305 457.93678284 C-76.83455461 456.23447633 -76.8382808 454.53217061 -76.84239453 452.82986587 C-76.85238934 448.15631839 -76.85612726 443.48278376 -76.85878384 438.80922711 C-76.86269436 433.76672836 -76.87227215 428.72423972 -76.8809967 423.68174744 C-76.9007396 411.50650806 -76.91082439 399.33126788 -76.91972449 387.1560165 C-76.9241108 381.41849854 -76.92947671 375.68098151 -76.93471336 369.94346428 C-76.95172317 350.86408588 -76.96621671 331.78470804 -76.9734621 312.70532322 C-76.97537191 307.75651104 -76.97729225 302.80769888 -76.97924805 297.85888672 C-76.97973179 296.62892768 -76.98021553 295.39896864 -76.98071393 294.13173812 C-76.9890119 274.21312887 -77.01434602 254.29457973 -77.04682872 234.37599672 C-77.07992576 213.91343209 -77.09791324 193.45089799 -77.10110635 172.98830646 C-77.10326894 161.50442491 -77.11198107 150.02063101 -77.13756752 138.53677559 C-77.1593106 128.75551306 -77.16730716 118.9743595 -77.15760074 109.19307555 C-77.15306657 104.20677842 -77.15489079 99.22070593 -77.17436218 94.23443985 C-77.19206985 89.66012568 -77.19093493 85.08619876 -77.17546489 80.51188003 C-77.17310031 78.86645407 -77.17735192 77.22100075 -77.18929354 75.57561643 C-77.32217248 56.03992491 -73.14431947 37.14496859 -59.04736328 22.69262695 C-58.26748047 21.93208008 -57.48759766 21.1715332 -56.68408203 20.38793945 C-55.93513672 19.60676758 -55.18619141 18.8255957 -54.41455078 18.02075195 C-39.51385126 3.34245093 -19.93932872 1.00614383 0 0 Z M583.31591797 379.38793945 C582.65591797 382.35793945 581.99591797 385.32793945 581.31591797 388.38793945 C585.27591797 388.38793945 589.23591797 388.38793945 593.31591797 388.38793945 C592.40841797 387.27418945 591.50091797 386.16043945 590.56591797 385.01293945 C590.05544922 384.38645508 589.54498047 383.7599707 589.01904297 383.11450195 C587.15401484 381.03806851 587.15401484 381.03806851 583.31591797 379.38793945 Z M560.31591797 468.38793945 C558.50002664 473.04768357 556.91640586 477.6444968 555.6315918 482.47509766 C550.41837953 501.83170754 540.10370253 516.77454934 522.68701172 526.91918945 C520.57823558 528.10723235 518.45954986 529.26434496 516.31591797 530.38793945 C519.11012289 534.30397249 519.11012289 534.30397249 523.31591797 536.38793945 C540.47591797 519.22793945 557.63591797 502.06793945 575.31591797 484.38793945 C573.72447528 481.20505407 572.9017415 479.7232445 570.53076172 477.37231445 C569.73508789 476.57954102 569.73508789 476.57954102 568.92333984 475.77075195 C568.37226562 475.23192383 567.82119141 474.6930957 567.25341797 474.13793945 C566.69847656 473.58364258 566.14353516 473.0293457 565.57177734 472.45825195 C563.311205 469.67049627 563.311205 469.67049627 560.31591797 468.38793945 Z " fill="#65A441" transform="translate(133.68408203125,151.612060546875)"/>
<path d="M0 0 C1.03364276 -0.03831145 1.03364276 -0.03831145 2.08816719 -0.07739687 C34.35040336 -1.24203087 64.6961617 -1.83241842 89.81336975 21.38305664 C102.36086621 33.56063188 113.248006 47.60704986 122.83465576 62.19844055 C125.00667132 64.9630432 126.92846089 66.15078901 129.9375 67.875 C130.2675 68.865 130.5975 69.855 130.9375 70.875 C132.2528341 71.57651152 133.58867592 72.24025925 134.9375 72.875 C136.6875 74.375 136.6875 74.375 137.9375 75.875 C137.9375 76.535 137.9375 77.195 137.9375 77.875 C138.535625 78.143125 139.13375 78.41125 139.75 78.6875 C141.93597854 79.87417406 143.35082594 80.97099113 144.9375 82.875 C144.9375 83.535 144.9375 84.195 144.9375 84.875 C145.535625 85.143125 146.13375 85.41125 146.75 85.6875 C149.10480891 86.96582483 150.34370731 87.71741275 151.9375 89.875 C152.23424426 92.37118523 152.34672625 94.61894435 152.32518005 97.11585999 C152.33325836 98.23005653 152.33325836 98.23005653 152.34149987 99.3667621 C152.35584123 101.86324611 152.34866054 104.35920447 152.34155273 106.85571289 C152.34725339 108.64286731 152.35421646 110.43001809 152.36235046 112.21716309 C152.3803387 117.07912428 152.37910191 121.94090554 152.37340808 126.80289006 C152.37032188 130.86313762 152.37640291 134.92335032 152.38244683 138.98359293 C152.39651139 148.56843699 152.39491703 158.15319198 152.38354492 167.73803711 C152.37208417 177.61560284 152.38610056 187.49289641 152.4129414 197.37042624 C152.43513038 205.85466867 152.4417279 214.33882589 152.43586498 222.82309526 C152.43249914 227.88831015 152.4348847 232.95335092 152.45211601 238.01854134 C152.46763207 242.78827939 152.46357797 247.55761669 152.44481087 252.32733917 C152.44113669 254.07276523 152.44419911 255.81822126 152.45469666 257.56361961 C152.51285336 268.0378427 151.85382724 276.49283709 146.25 285.625 C138.6271172 293.04185894 130.70194077 296.19666204 120.0435791 296.12896729 C119.2789128 296.13208727 118.51424649 296.13520725 117.72640848 296.13842177 C115.18015599 296.14635919 112.63414463 296.14009485 110.08789062 296.13378906 C108.25587322 296.13650082 106.42385691 296.14006278 104.59184265 296.14440918 C99.62704219 296.15351349 94.66232501 296.14999698 89.69752312 296.14365101 C84.49711765 296.1385809 79.29671923 296.14328528 74.09631348 296.14642334 C65.36383791 296.15006003 56.6313962 296.14527166 47.89892578 296.13574219 C37.80884606 296.12485822 27.71884716 296.12838401 17.6287694 296.139395 C8.95936915 296.14847632 0.2899932 296.14974901 -8.37941027 296.14451766 C-13.55452327 296.14140262 -18.72959831 296.14097585 -23.90470886 296.14759064 C-28.77042098 296.15337574 -33.63602906 296.14934584 -38.50172997 296.13780212 C-40.28550735 296.13516178 -42.06929353 296.13590994 -43.8530674 296.14032745 C-46.29168877 296.14580905 -48.72997872 296.13891723 -51.1685791 296.12896729 C-51.8710217 296.13342873 -52.57346431 296.13789017 -53.29719305 296.14248681 C-61.88343 296.07474032 -67.84616498 293.56067228 -74.0625 287.875 C-81.77782704 279.77738198 -83.53248727 270.42210934 -83.40548706 259.54576111 C-83.40638169 258.06014037 -83.40638169 258.06014037 -83.40729439 256.54450709 C-83.40556062 253.25204263 -83.38226977 249.96010098 -83.35888672 246.66772461 C-83.3530846 244.29664887 -83.34857634 241.92556966 -83.34526062 239.55448914 C-83.33222684 233.13308608 -83.30003515 226.71191185 -83.26354742 220.29060435 C-83.24136424 216.2766272 -83.22565917 212.26264211 -83.21176529 208.24862862 C-83.20944963 207.5809446 -83.20713397 206.91326059 -83.20474813 206.22534372 C-83.20006966 204.86869669 -83.19540531 203.51204962 -83.19075491 202.15540249 C-83.14652439 189.45438489 -83.08376041 176.75351105 -83.01454844 164.05260838 C-82.95565949 153.16783061 -82.9124954 142.28308328 -82.88085938 131.39819336 C-82.84405842 118.73908782 -82.79761681 106.08007829 -82.73580945 93.42106825 C-82.72923759 92.06989743 -82.72267749 90.71872655 -82.7161293 89.36755562 C-82.71290237 88.70285722 -82.70967543 88.03815882 -82.70635071 87.35331805 C-82.68432551 82.68166191 -82.6692652 78.01002233 -82.65658188 73.33833122 C-82.63884054 67.04516095 -82.60654603 60.75222836 -82.56310463 54.45918465 C-82.54953481 52.15218649 -82.54098376 49.84515242 -82.53786659 47.53811646 C-82.53277759 44.3842392 -82.50936425 41.23100112 -82.48141479 38.07725525 C-82.48561662 36.71439617 -82.48561662 36.71439617 -82.48990333 35.32400459 C-82.35450125 25.08817758 -79.47502639 18.42905915 -72.40234375 11.046875 C-56.47289207 -3.73906012 -20.85377175 0.7477705 0 0 Z M117.9375 96.875 C117.2775 99.845 116.6175 102.815 115.9375 105.875 C119.8975 105.875 123.8575 105.875 127.9375 105.875 C127.03 104.76125 126.1225 103.6475 125.1875 102.5 C124.67703125 101.87351562 124.1665625 101.24703125 123.640625 100.6015625 C121.77559687 98.52512905 121.77559687 98.52512905 117.9375 96.875 Z M94.9375 185.875 C93.12160868 190.53474412 91.53798789 195.13155735 90.25317383 199.9621582 C85.03996157 219.31876808 74.72528456 234.26160988 57.30859375 244.40625 C55.19981761 245.5942929 53.08113189 246.7514055 50.9375 247.875 C53.73170492 251.79103304 53.73170492 251.79103304 57.9375 253.875 C75.0975 236.715 92.2575 219.555 109.9375 201.875 C108.34605731 198.69211461 107.52332353 197.21030505 105.15234375 194.859375 C104.35666992 194.06660156 104.35666992 194.06660156 103.54492188 193.2578125 C102.99384766 192.71898437 102.44277344 192.18015625 101.875 191.625 C101.32005859 191.07070313 100.76511719 190.51640625 100.19335938 189.9453125 C97.93278704 187.15755682 97.93278704 187.15755682 94.9375 185.875 Z " fill="#8AC249" transform="translate(599.0625,434.125)"/>
<path d="M0 0 C2.56863668 1.20919257 4.18377472 2.87470637 6.16769409 4.90113831 C6.96691284 5.71002502 7.76613159 6.51891174 8.58956909 7.35231018 C9.82706909 8.62751526 9.82706909 8.62751526 11.08956909 9.92848206 C12.35027222 11.20948792 12.35027222 11.20948792 13.63644409 12.51637268 C15.71104507 14.62633617 17.77832741 16.74297914 19.83956909 18.86598206 C18.52579993 21.77142078 17.11900418 23.83259264 14.85861206 26.07398987 C14.25814056 26.6743103 13.65766907 27.27463074 13.03900146 27.8931427 C12.39311066 28.52871094 11.74721985 29.16427917 11.08175659 29.81910706 C10.08717941 30.80943939 10.08717941 30.80943939 9.07250977 31.81977844 C6.95785077 33.92326029 4.83633697 36.01967347 2.71456909 38.11598206 C1.27791352 39.54260466 -0.15828989 40.96968277 -1.59402466 42.39723206 C-5.11093895 45.89211866 -8.63401638 49.38068267 -12.16043091 52.86598206 C-10.84666174 55.77142078 -9.43986599 57.83259264 -7.17947388 60.07398987 C-6.27876663 60.97447052 -6.27876663 60.97447052 -5.35986328 61.8931427 C-4.71397247 62.52871094 -4.06808167 63.16427917 -3.40261841 63.81910706 C-2.73956696 64.47932861 -2.0765155 65.13955017 -1.39337158 65.81977844 C0.72128741 67.92326029 2.84280122 70.01967347 4.96456909 72.11598206 C6.40122466 73.54260466 7.83742807 74.96968277 9.27316284 76.39723206 C12.79007714 79.89211866 16.31315456 83.38068267 19.83956909 86.86598206 C18.33501404 90.05219509 16.95004532 91.87092986 14.21456909 94.11598206 C10.43050332 97.28196086 7.09805589 100.69919776 3.79660034 104.36207581 C1.83956909 105.86598206 1.83956909 105.86598206 -0.44892883 106.25831604 C-4.33455056 105.69609576 -5.76068597 103.86669713 -8.50149536 101.09254456 C-9.00941116 100.58535889 -9.51732697 100.07817322 -10.04063416 99.55561829 C-11.71378707 97.87898649 -13.36854251 96.18535372 -15.02371216 94.49098206 C-16.18132456 93.32404265 -17.34004706 92.15820351 -18.49983215 90.99342346 C-21.5474 87.92677724 -24.57965489 84.84541321 -27.60897827 81.76075745 C-30.70362024 78.61494176 -33.81248897 75.48325655 -36.92019653 72.35035706 C-43.01429995 66.20265108 -49.0923011 60.03932631 -55.16043091 53.86598206 C-49.9179887 47.53681268 -44.21183313 41.70088008 -38.43386841 35.86598206 C-37.92583302 35.35262299 -37.41779762 34.83926392 -36.89436722 34.31034851 C-34.2150732 31.60453238 -31.532258 28.90225915 -28.84695435 26.20240784 C-26.62863461 23.97065317 -24.41784931 21.73181224 -22.21316528 19.48658752 C-19.53940057 16.76368637 -16.85373606 14.05309648 -14.15886307 11.35108948 C-13.13632273 10.32182346 -12.11805245 9.2882971 -11.10416794 8.25050354 C-9.69245069 6.80735733 -8.26349867 5.3811309 -6.83377075 3.95582581 C-6.02580048 3.13976868 -5.2178302 2.32371155 -4.38537598 1.48292542 C-2.16043091 -0.13401794 -2.16043091 -0.13401794 0 0 Z " fill="#66A442" transform="translate(603.1604309082031,581.1340179443359)"/>
<path d="M0 0 C4.67887113 4.01046097 9.20423311 8.01880649 13.60961914 12.30566406 C14.22832886 12.90495224 14.84703857 13.50424042 15.48449707 14.12168884 C21.12316974 19.5931185 26.72758562 25.09963703 32.32108402 30.61720657 C36.07056265 34.31507446 39.83087551 38.00028039 43.61889648 41.65869141 C47.29744191 45.21191245 50.94582606 48.7936386 54.57485771 52.39739227 C55.95887954 53.76179114 57.3532749 55.11575095 58.75807381 56.45874786 C69.73295981 66.97221676 69.73295981 66.97221676 70.4069519 72.09020996 C69.8479126 75.10751898 69.21979997 77.78020003 67 80 C64.91380978 80.09417773 62.82439523 80.11742878 60.73608398 80.11352539 C60.07184701 80.11364593 59.40761003 80.11376646 58.72324467 80.11389065 C56.56416079 80.11314176 54.40516227 80.10551468 52.24609375 80.09765625 C50.93000122 80.09664917 49.61390869 80.09564209 48.25793457 80.09460449 C43.31778091 80.08935248 38.37763963 80.07539139 33.4375 80.0625 C22.403125 80.041875 11.36875 80.02125 0 80 C0 53.6 0 27.2 0 0 Z " fill="#66A442" transform="translate(648,460)"/>
<path d="M0 0 C3.18259851 1.40509099 5.31348466 3.06921342 7.75878906 5.53173828 C8.47923401 6.25233429 9.19967896 6.9729303 9.94195557 7.71536255 C10.70876648 8.49249603 11.47557739 9.26962952 12.265625 10.0703125 C13.05902283 10.86654022 13.85242065 11.66276794 14.66986084 12.48312378 C17.20130703 15.02575948 19.72570803 17.57526348 22.25 20.125 C23.96568617 21.85071753 25.68182662 23.57598355 27.3984375 25.30078125 C31.60424248 29.52863032 35.80428507 33.76213869 40 38 C39.0136892 41.2096172 38.0265898 44.41898708 37.03808594 47.62792969 C36.45604554 49.51860276 35.87505158 51.40960142 35.29785156 53.30175781 C29.76140504 71.34962708 20.7199723 87.26747881 4 97 C3.25363281 97.44214844 2.50726562 97.88429688 1.73828125 98.33984375 C-3.15559098 101.02649819 -3.15559098 101.02649819 -5.8671875 100.94140625 C-9.13576523 99.49868238 -11.32620984 96.98534241 -13.75 94.4375 C-14.25660156 93.91736328 -14.76320313 93.39722656 -15.28515625 92.86132812 C-16.53034405 91.58089916 -17.76611502 90.29132446 -19 89 C-17.68623083 86.09456128 -16.27943508 84.03338941 -14.01904297 81.79199219 C-13.41857147 81.19167175 -12.81809998 80.59135132 -12.19943237 79.97283936 C-11.55354156 79.33727112 -10.90765076 78.70170288 -10.2421875 78.046875 C-9.57913605 77.38665344 -8.91608459 76.72643188 -8.23294067 76.04620361 C-6.11828168 73.94272176 -3.99676788 71.84630858 -1.875 69.75 C-0.43834443 68.32337739 0.99785898 66.89629928 2.43359375 65.46875 C5.95050804 61.97386339 9.47358547 58.48529938 13 55 C11.68623083 52.09456128 10.27943508 50.03338941 8.01904297 47.79199219 C7.11833572 46.89151154 7.11833572 46.89151154 6.19943237 45.97283936 C5.55354156 45.33727112 4.90765076 44.70170288 4.2421875 44.046875 C3.57913605 43.38665344 2.91608459 42.72643188 2.23294067 42.04620361 C0.11828168 39.94272176 -2.00323212 37.84630858 -4.125 35.75 C-5.56165557 34.32337739 -6.99785898 32.89629928 -8.43359375 31.46875 C-11.95050804 27.97386339 -15.47358547 24.48529938 -19 21 C-17.42411996 17.6752055 -15.7182851 15.48368383 -13.0859375 12.890625 C-12.32539062 12.13652344 -11.56484375 11.38242187 -10.78125 10.60546875 C-9.9871875 9.82816406 -9.193125 9.05085937 -8.375 8.25 C-7.57320312 7.45722656 -6.77140625 6.66445313 -5.9453125 5.84765625 C-3.96797154 3.89385507 -1.98611091 1.94487897 0 0 Z " fill="#66A441" transform="translate(655,581)"/>
</svg>
