<?xml version="1.0" encoding="UTF-8"?>
<svg version="1.1" xmlns="http://www.w3.org/2000/svg" width="800" height="800">
<path d="M0 0 C1.97348129 -0.10741579 3.94695625 -0.21494776 5.92042542 -0.32258606 C24.07408193 -1.27982538 42.24213556 -1.83433777 60.41484261 -2.27805805 C72.57551485 -2.58236 84.70497015 -3.00876353 96.84716797 -3.75585938 C179.76616752 -8.75680011 179.76616752 -8.75680011 198.15423959 6.15690005 C206.61007366 13.82282507 213.53518735 22.99745565 220.43507028 32.04333782 C235.68757031 52.031027 249.73293199 67.83368395 275.72254133 71.58450681 C291.788753 73.68853826 308.00638235 73.95888549 324.18701172 73.9465332 C324.94678243 73.94661702 325.70655315 73.94670085 326.48934722 73.94678721 C346.10016659 73.93387496 365.67464639 73.28299619 385.26404715 72.41745657 C396.62005863 71.92098264 407.97261307 71.5852019 419.3371582 71.35986328 C420.14398379 71.34381432 420.95080937 71.32776535 421.78208422 71.31123006 C426.63801145 71.21577478 431.49402366 71.12532934 436.3500673 71.03602545 C443.42439069 70.90472473 450.49850662 70.76322367 457.57252502 70.61647034 C458.71401709 70.59292892 458.71401709 70.59292892 459.87856961 70.56891192 C470.33394426 70.35014975 480.78389562 70.048735 491.23456036 69.66662644 C493.35143444 69.58942032 495.46836843 69.51412981 497.58533108 69.43939507 C504.07066838 69.20920489 510.55469825 68.96250041 517.03820801 68.68437195 C519.31987522 68.60000594 521.6015665 68.51628746 523.88328552 68.43333435 C524.88790799 68.38346687 525.89253046 68.33359939 526.92759603 68.28222078 C543.55041604 67.73525489 557.66228953 75.02146148 569.95263672 85.6730957 C583.12452893 98.07847658 590.63629126 114.44652124 591.40763342 132.53922987 C591.44551894 134.88044963 591.45222841 137.21969767 591.44721985 139.56121826 C591.44933556 140.45136226 591.45145128 141.34150626 591.4536311 142.25862432 C591.45959376 145.22329143 591.45863366 148.18791553 591.45776367 151.15258789 C591.46079747 153.28518241 591.46431954 155.41777628 591.46829224 157.55036926 C591.47616171 162.13325827 591.48131864 166.71613957 591.4845829 171.29903412 C591.49050357 178.54266227 591.50705164 185.78624159 591.52592468 193.02984619 C591.53226127 195.51113507 591.5385869 197.99242398 591.54490185 200.47371292 C591.54806766 201.71593188 591.55123347 202.95815084 591.55449522 204.23801279 C591.59656783 221.0964109 591.62957777 237.95478525 591.6418457 254.81323242 C591.65021282 266.19448157 591.67264743 277.57560875 591.71120137 288.95679688 C591.73099604 294.97858922 591.74335499 301.0001991 591.73836708 307.02202606 C591.7337377 312.67907051 591.74743218 318.33576807 591.77537918 323.99274254 C591.78231795 326.0712565 591.78238887 328.14980613 591.77517891 330.22831917 C591.76634562 333.0601619 591.78189394 335.89084688 591.80366516 338.72259521 C591.79100136 339.9634364 591.79100136 339.9634364 591.77808172 341.22934508 C591.83089276 344.92984895 591.92172856 346.91914791 594.34793377 349.80452347 C594.99736856 350.32705074 595.64680334 350.84957802 596.31591797 351.38793945 C596.31591797 352.04793945 596.31591797 352.70793945 596.31591797 353.38793945 C597.21310547 353.79012695 597.21310547 353.79012695 598.12841797 354.20043945 C600.31439651 355.38711352 601.72924391 356.48393058 603.31591797 358.38793945 C603.31591797 359.04793945 603.31591797 359.70793945 603.31591797 360.38793945 C604.21310547 360.79012695 604.21310547 360.79012695 605.12841797 361.20043945 C607.31439651 362.38711352 608.72924391 363.48393058 610.31591797 365.38793945 C610.31591797 366.04793945 610.31591797 366.70793945 610.31591797 367.38793945 C611.21310547 367.79012695 611.21310547 367.79012695 612.12841797 368.20043945 C614.48322687 369.47876429 615.72212528 370.2303522 617.31591797 372.38793945 C617.61266222 374.88412468 617.72514422 377.13188381 617.70359802 379.62879944 C617.71167633 380.74299599 617.71167633 380.74299599 617.71991783 381.87970155 C617.7342592 384.37618557 617.72707851 386.87214392 617.7199707 389.36865234 C617.72567136 391.15580676 617.73263443 392.94295754 617.74076843 394.73010254 C617.75875666 399.59206374 617.75751988 404.45384499 617.75182605 409.31582952 C617.74873985 413.37607707 617.75482088 417.43628978 617.76086479 421.49653238 C617.77492936 431.08137644 617.773335 440.66613143 617.76196289 450.25097656 C617.75050214 460.12854229 617.76451853 470.00583586 617.79135936 479.88336569 C617.81354835 488.36760812 617.82014587 496.85176534 617.81428295 505.33603472 C617.81091711 510.4012496 617.81330267 515.46629037 617.83053398 520.53148079 C617.84605004 525.30121884 617.84199594 530.07055614 617.82322884 534.84027863 C617.81955466 536.58570468 617.82261708 538.33116071 617.83311462 540.07655907 C617.89127133 550.55078215 617.23224521 559.00577654 611.62841797 568.13793945 C604.00553517 575.55479839 596.08035874 578.70960149 585.42199707 578.64190674 C584.65733077 578.64502672 583.89266446 578.6481467 583.10482645 578.65136123 C580.55857395 578.65929864 578.0125626 578.65303431 575.46630859 578.64672852 C573.63429119 578.64944027 571.80227488 578.65300224 569.97026062 578.65734863 C565.00546016 578.66645294 560.04074297 578.66293644 555.07594109 578.65659046 C549.87553562 578.65152035 544.6751372 578.65622473 539.47473145 578.65936279 C530.74225588 578.66299948 522.00981417 578.65821112 513.27734375 578.64868164 C503.18726403 578.63779767 493.09726513 578.64132346 483.00718737 578.65233445 C474.33778712 578.66141577 465.66841117 578.66268846 456.9990077 578.65745711 C451.8238947 578.65434207 446.64881966 578.6539153 441.47370911 578.66053009 C436.60799699 578.66631519 431.74238891 578.6622853 426.876688 578.65074158 C425.09291061 578.64810123 423.30912444 578.6488494 421.52535057 578.65326691 C419.0867292 578.6587485 416.64843925 578.65185668 414.20983887 578.64190674 C413.50739626 578.64636818 412.80495366 578.65082963 412.08122492 578.65542626 C403.49498797 578.58767978 397.53225299 576.07361173 391.31591797 570.38793945 C383.7442414 562.44108972 382.11420697 554.19310754 382.24560547 543.5402832 C382.25321899 542.36169739 382.25321899 542.36169739 382.26098633 541.15930176 C382.27414822 539.23547221 382.29432223 537.31169281 382.31591797 535.38793945 C381.47484619 535.38907861 380.63377441 535.39021778 379.76721561 535.39139146 C329.89746236 535.45855337 280.02771391 535.51001313 230.15792447 535.54113544 C224.16745738 535.54488748 218.17699039 535.54877045 212.18652344 535.55273438 C210.99394987 535.55352131 209.80137631 535.55430824 208.57266416 535.55511902 C189.27305981 535.56816617 169.97348233 535.59181622 150.67389391 535.61939784 C130.86471061 535.64747123 111.05554135 535.66411981 91.24633896 535.67020494 C79.02705026 535.67431736 66.80783749 535.68729733 54.58857216 535.71168885 C46.20471329 535.7275699 37.82089357 535.73233444 29.43702076 535.72844359 C24.60294825 535.72652574 19.76900825 535.72942643 14.93495941 535.74555588 C10.50177707 535.76023915 6.06881538 535.76083757 1.63562252 535.75063614 C0.03914803 535.74937677 -1.55734067 535.75311059 -3.15378751 535.762589 C-15.82906486 535.8334158 -28.36919395 534.88729941 -39.80908203 528.88793945 C-40.80282837 528.37734985 -40.80282837 528.37734985 -41.81665039 527.85644531 C-56.83155693 519.72977404 -68.23746811 505.52015721 -73.68798828 489.4230957 C-75.79199167 482.01334463 -76.80723327 474.81933622 -76.81830311 467.10570621 C-76.82065534 466.40343614 -76.82300757 465.70116607 -76.82543108 464.97761509 C-76.83207393 462.63065521 -76.83166429 460.28375129 -76.83125305 457.93678284 C-76.83455461 456.23447633 -76.8382808 454.53217061 -76.84239453 452.82986587 C-76.85238934 448.15631839 -76.85612726 443.48278376 -76.85878384 438.80922711 C-76.86269436 433.76672836 -76.87227215 428.72423972 -76.8809967 423.68174744 C-76.9007396 411.50650806 -76.91082439 399.33126788 -76.91972449 387.1560165 C-76.9241108 381.41849854 -76.92947671 375.68098151 -76.93471336 369.94346428 C-76.95172317 350.86408588 -76.96621671 331.78470804 -76.9734621 312.70532322 C-76.97537191 307.75651104 -76.97729225 302.80769888 -76.97924805 297.85888672 C-76.97973179 296.62892768 -76.98021553 295.39896864 -76.98071393 294.13173812 C-76.9890119 274.21312887 -77.01434602 254.29457973 -77.04682872 234.37599672 C-77.07992576 213.91343209 -77.09791324 193.45089799 -77.10110635 172.98830646 C-77.10326894 161.50442491 -77.11198107 150.02063101 -77.13756752 138.53677559 C-77.1593106 128.75551306 -77.16730716 118.9743595 -77.15760074 109.19307555 C-77.15306657 104.20677842 -77.15489079 99.22070593 -77.17436218 94.23443985 C-77.19206985 89.66012568 -77.19093493 85.08619876 -77.17546489 80.51188003 C-77.17310031 78.86645407 -77.17735192 77.22100075 -77.18929354 75.57561643 C-77.32217248 56.03992491 -73.14431947 37.14496859 -59.04736328 22.69262695 C-58.26748047 21.93208008 -57.48759766 21.1715332 -56.68408203 20.38793945 C-55.93513672 19.60676758 -55.18619141 18.8255957 -54.41455078 18.02075195 C-39.51385126 3.34245093 -19.93932872 1.00614383 0 0 Z M591.31591797 386.38793945 C591.31591797 387.04793945 591.31591797 387.70793945 591.31591797 388.38793945 C591.97591797 388.05793945 592.63591797 387.72793945 593.31591797 387.38793945 C592.65591797 387.05793945 591.99591797 386.72793945 591.31591797 386.38793945 Z " fill="#65A441" transform="translate(133.68408203125,151.612060546875)"/>
<path d="M0 0 C1.03429421 -0.03766 1.03429421 -0.03766 2.08948326 -0.0760808 C34.08738312 -1.21087047 64.5246358 -1.98837114 89.46182251 21.0315094 C101.78602887 32.98647323 112.4544977 46.8083714 121.81011963 61.17390442 C123.95898243 63.91981647 125.85111496 65.15631625 128.875 66.8125 C129.55768138 68.13770503 130.2257041 69.47062182 130.875 70.8125 C132.80830603 71.90416275 132.80830603 71.90416275 134.875 72.8125 C136.625 74.3125 136.625 74.3125 137.875 75.8125 C137.875 76.4725 137.875 77.1325 137.875 77.8125 C138.473125 78.080625 139.07125 78.34875 139.6875 78.625 C141.87347854 79.81167406 143.28832594 80.90849113 144.875 82.8125 C144.875 83.4725 144.875 84.1325 144.875 84.8125 C145.473125 85.080625 146.07125 85.34875 146.6875 85.625 C149.04230891 86.90332483 150.28120731 87.65491275 151.875 89.8125 C152.17174426 92.30868523 152.28422625 94.55644435 152.26268005 97.05335999 C152.27075836 98.16755653 152.27075836 98.16755653 152.27899987 99.3042621 C152.29334123 101.80074611 152.28616054 104.29670447 152.27905273 106.79321289 C152.28475339 108.58036731 152.29171646 110.36751809 152.29985046 112.15466309 C152.3178387 117.01662428 152.31660191 121.87840554 152.31090808 126.74039006 C152.30782188 130.80063762 152.31390291 134.86085032 152.31994683 138.92109293 C152.33401139 148.50593699 152.33241703 158.09069198 152.32104492 167.67553711 C152.30958417 177.55310284 152.32360056 187.43039641 152.3504414 197.30792624 C152.37263038 205.79216867 152.3792279 214.27632589 152.37336498 222.76059526 C152.36999914 227.82581015 152.3723847 232.89085092 152.38961601 237.95604134 C152.40513207 242.72577939 152.40107797 247.49511669 152.38231087 252.26483917 C152.37863669 254.01026523 152.38169911 255.75572126 152.39219666 257.50111961 C152.45035336 267.9753427 151.79132724 276.43033709 146.1875 285.5625 C138.5646172 292.97935894 130.63944077 296.13416204 119.9810791 296.06646729 C119.2164128 296.06958727 118.45174649 296.07270725 117.66390848 296.07592177 C115.11765599 296.08385919 112.57164463 296.07759485 110.02539062 296.07128906 C108.19337322 296.07400082 106.36135691 296.07756278 104.52934265 296.08190918 C99.56454219 296.09101349 94.59982501 296.08749698 89.63502312 296.08115101 C84.43461765 296.0760809 79.23421923 296.08078528 74.03381348 296.08392334 C65.30133791 296.08756003 56.5688962 296.08277166 47.83642578 296.07324219 C37.74634606 296.06235822 27.65634716 296.06588401 17.5662694 296.076895 C8.89686915 296.08597632 0.2274932 296.08724901 -8.44191027 296.08201766 C-13.61702327 296.07890262 -18.79209831 296.07847585 -23.96720886 296.08509064 C-28.83292098 296.09087574 -33.69852906 296.08684584 -38.56422997 296.07530212 C-40.34800735 296.07266178 -42.13179353 296.07340994 -43.9155674 296.07782745 C-46.35418877 296.08330905 -48.79247872 296.07641723 -51.2310791 296.06646729 C-51.9335217 296.07092873 -52.63596431 296.07539017 -53.35969305 296.07998681 C-61.94593 296.01224032 -67.90866498 293.49817228 -74.125 287.8125 C-81.85153074 279.70312314 -83.5931716 270.33531769 -83.47471619 259.44529724 C-83.47601817 258.45079986 -83.47732016 257.45630248 -83.4786616 256.43166882 C-83.47925463 253.12539595 -83.4583116 249.81962814 -83.43725586 246.51342773 C-83.43309218 244.132499 -83.43020599 241.75156775 -83.42849731 239.37063599 C-83.42063557 233.59099396 -83.3985211 227.81153963 -83.36909401 222.0319696 C-83.34539575 217.33263809 -83.32732618 212.63331641 -83.31320381 207.93394661 C-83.31117687 207.26348723 -83.30914993 206.59302786 -83.30706157 205.90225153 C-83.30295544 204.53996747 -83.29885679 203.1776834 -83.29476554 201.8153993 C-83.25569847 189.06144942 -83.19733136 176.30764246 -83.13277496 163.55379982 C-83.074336 151.89815278 -83.03877856 140.24256943 -83.0142123 128.58680593 C-82.98876738 116.60032527 -82.9486502 104.61397822 -82.89239794 92.62760121 C-82.86108436 85.90540046 -82.83537554 79.18329556 -82.82481194 72.46102715 C-82.81386167 66.14153641 -82.78365795 59.82242364 -82.73871231 53.50308609 C-82.72541698 51.18641738 -82.71885175 48.86969861 -82.71957207 46.55299187 C-82.71947171 43.38581543 -82.69484608 40.21972622 -82.66416931 37.05271912 C-82.66988337 36.14025545 -82.67559743 35.22779179 -82.68148464 34.28767771 C-82.54023317 25.17146822 -79.22685556 18.23119301 -73.05078125 11.60546875 C-56.51647953 -3.7885363 -21.54591761 0.75890267 0 0 Z M125.875 103.8125 C125.875 104.4725 125.875 105.1325 125.875 105.8125 C126.535 105.4825 127.195 105.1525 127.875 104.8125 C127.215 104.4825 126.555 104.1525 125.875 103.8125 Z " fill="#8AC249" transform="translate(599.125,434.1875)"/>
<path d="M0 0 C2.56863668 1.20919257 4.18377472 2.87470637 6.16769409 4.90113831 C6.96691284 5.71002502 7.76613159 6.51891174 8.58956909 7.35231018 C9.82706909 8.62751526 9.82706909 8.62751526 11.08956909 9.92848206 C12.35027222 11.20948792 12.35027222 11.20948792 13.63644409 12.51637268 C15.71104507 14.62633617 17.77832741 16.74297914 19.83956909 18.86598206 C18.52579993 21.77142078 17.11900418 23.83259264 14.85861206 26.07398987 C14.25814056 26.6743103 13.65766907 27.27463074 13.03900146 27.8931427 C12.39311066 28.52871094 11.74721985 29.16427917 11.08175659 29.81910706 C10.08717941 30.80943939 10.08717941 30.80943939 9.07250977 31.81977844 C6.95785077 33.92326029 4.83633697 36.01967347 2.71456909 38.11598206 C1.27791352 39.54260466 -0.15828989 40.96968277 -1.59402466 42.39723206 C-5.11093895 45.89211866 -8.63401638 49.38068267 -12.16043091 52.86598206 C-10.84666174 55.77142078 -9.43986599 57.83259264 -7.17947388 60.07398987 C-6.27876663 60.97447052 -6.27876663 60.97447052 -5.35986328 61.8931427 C-4.71397247 62.52871094 -4.06808167 63.16427917 -3.40261841 63.81910706 C-2.73956696 64.47932861 -2.0765155 65.13955017 -1.39337158 65.81977844 C0.72128741 67.92326029 2.84280122 70.01967347 4.96456909 72.11598206 C6.40122466 73.54260466 7.83742807 74.96968277 9.27316284 76.39723206 C12.79007714 79.89211866 16.31315456 83.38068267 19.83956909 86.86598206 C18.33501404 90.05219509 16.95004532 91.87092986 14.21456909 94.11598206 C10.43050332 97.28196086 7.09805589 100.69919776 3.79660034 104.36207581 C1.83956909 105.86598206 1.83956909 105.86598206 -0.44892883 106.25831604 C-4.33455056 105.69609576 -5.76068597 103.86669713 -8.50149536 101.09254456 C-9.00941116 100.58535889 -9.51732697 100.07817322 -10.04063416 99.55561829 C-11.71378707 97.87898649 -13.36854251 96.18535372 -15.02371216 94.49098206 C-16.18132456 93.32404265 -17.34004706 92.15820351 -18.49983215 90.99342346 C-21.5474 87.92677724 -24.57965489 84.84541321 -27.60897827 81.76075745 C-30.70362024 78.61494176 -33.81248897 75.48325655 -36.92019653 72.35035706 C-43.01429995 66.20265108 -49.0923011 60.03932631 -55.16043091 53.86598206 C-49.9179887 47.53681268 -44.21183313 41.70088008 -38.43386841 35.86598206 C-37.92583302 35.35262299 -37.41779762 34.83926392 -36.89436722 34.31034851 C-34.2150732 31.60453238 -31.532258 28.90225915 -28.84695435 26.20240784 C-26.62863461 23.97065317 -24.41784931 21.73181224 -22.21316528 19.48658752 C-19.53940057 16.76368637 -16.85373606 14.05309648 -14.15886307 11.35108948 C-13.13632273 10.32182346 -12.11805245 9.2882971 -11.10416794 8.25050354 C-9.69245069 6.80735733 -8.26349867 5.3811309 -6.83377075 3.95582581 C-6.02580048 3.13976868 -5.2178302 2.32371155 -4.38537598 1.48292542 C-2.16043091 -0.13401794 -2.16043091 -0.13401794 0 0 Z " fill="#66A442" transform="translate(603.1604309082031,581.1340179443359)"/>
<path d="M0 0 C3.8239492 1.57877433 6.23642099 3.99501713 9.13574219 6.90869141 C9.63375839 7.40641556 10.1317746 7.90413971 10.6448822 8.41694641 C12.28366733 10.0571207 13.91526134 11.70425661 15.546875 13.3515625 C16.68415347 14.49257256 17.8218754 15.63314077 18.96002197 16.77328491 C21.94989979 19.77078762 24.93372191 22.77424851 27.9163208 25.7789917 C30.96271321 28.84586712 34.01479703 31.90706694 37.06640625 34.96875 C43.04985434 40.97362783 49.02691663 46.98481232 55 53 C53.44337397 56.71553046 51.16434174 59.09506972 48.33837891 61.9362793 C47.86658707 62.41318207 47.39479523 62.89008484 46.90870667 63.38143921 C45.35311757 64.95088945 43.79024911 66.512839 42.2265625 68.07421875 C41.14019076 69.1644785 40.05404284 70.25496131 38.96810913 71.34565735 C36.69339908 73.62782152 34.41486174 75.9060809 32.13378906 78.18188477 C29.21094638 81.09892513 26.29964363 84.02718905 23.39132118 86.95869732 C21.1523365 89.21240888 18.90646848 91.45916063 16.65855026 93.70395851 C15.58211502 94.7809072 14.50804199 95.86022234 13.43638992 96.94193077 C11.93812466 98.45252657 10.43063557 99.95327864 8.92041016 101.4519043 C7.63706284 102.73619576 7.63706284 102.73619576 6.32778931 104.0464325 C4.08639301 105.92749577 2.88744617 106.75915537 0 107 C-1.75390625 105.953125 -1.75390625 105.953125 -3.5625 104.25 C-4.24441406 103.61449219 -4.92632813 102.97898437 -5.62890625 102.32421875 C-10.12318981 97.91878428 -14.58653854 93.48647829 -19 89 C-17.68623083 86.09456128 -16.27943508 84.03338941 -14.01904297 81.79199219 C-13.41857147 81.19167175 -12.81809998 80.59135132 -12.19943237 79.97283936 C-11.55354156 79.33727112 -10.90765076 78.70170288 -10.2421875 78.046875 C-9.57913605 77.38665344 -8.91608459 76.72643188 -8.23294067 76.04620361 C-6.11828168 73.94272176 -3.99676788 71.84630858 -1.875 69.75 C-0.43834443 68.32337739 0.99785898 66.89629928 2.43359375 65.46875 C5.95050804 61.97386339 9.47358547 58.48529938 13 55 C11.68623083 52.09456128 10.27943508 50.03338941 8.01904297 47.79199219 C7.11833572 46.89151154 7.11833572 46.89151154 6.19943237 45.97283936 C5.55354156 45.33727112 4.90765076 44.70170288 4.2421875 44.046875 C3.57913605 43.38665344 2.91608459 42.72643188 2.23294067 42.04620361 C0.11828168 39.94272176 -2.00323212 37.84630858 -4.125 35.75 C-5.56165557 34.32337739 -6.99785898 32.89629928 -8.43359375 31.46875 C-11.95050804 27.97386339 -15.47358547 24.48529938 -19 21 C-17.42411996 17.6752055 -15.7182851 15.48368383 -13.0859375 12.890625 C-12.32539062 12.13652344 -11.56484375 11.38242187 -10.78125 10.60546875 C-9.9871875 9.82816406 -9.193125 9.05085937 -8.375 8.25 C-7.57320312 7.45722656 -6.77140625 6.66445313 -5.9453125 5.84765625 C-3.96797154 3.89385507 -1.98611091 1.94487897 0 0 Z " fill="#66A442" transform="translate(655,581)"/>
<path d="M0 0 C7.87626944 6.75108809 7.87626944 6.75108809 10.49925232 9.3520813 C11.09786575 9.94353943 11.69647919 10.53499756 12.31323242 11.14437866 C12.94261719 11.77107452 13.57200195 12.39777039 14.22045898 13.04345703 C14.90423111 13.72065796 15.58800323 14.39785889 16.29249573 15.09558105 C18.52990577 17.3134482 20.76342833 19.53516966 22.99609375 21.7578125 C23.7619536 22.51959682 24.52781345 23.28138115 25.31688118 24.06624985 C29.35931447 28.08791795 33.39853222 32.11278498 37.43530273 36.14013672 C41.60899271 40.30269631 45.79423793 44.45343858 49.98208523 48.60174751 C53.20134907 51.79494828 56.41177295 54.99692498 59.61982918 58.20138168 C61.15991042 59.73658145 62.70337832 61.26839141 64.25024223 62.79675674 C66.4047251 64.9270373 68.54638621 67.06943853 70.68530273 69.21533203 C71.32885712 69.84607635 71.9724115 70.47682068 72.63546753 71.12667847 C73.50377953 72.00540619 73.50377953 72.00540619 74.38963318 72.90188599 C74.89674552 73.40660997 75.40385786 73.91133396 75.92633724 74.43135262 C77 76 77 76 77 80 C51.59 80 26.18 80 0 80 C0 53.6 0 27.2 0 0 Z " fill="#66A442" transform="translate(648,460)"/>
</svg>
